<svg width="360" height="247" viewBox="0 0 360 247" fill="none" xmlns="http://www.w3.org/2000/svg">
<path d="M0 0H360V72C360 168.65 281.65 247 185 247H175C78.3502 247 0 168.65 0 72V0Z" fill="#F9A825"/>
<mask id="mask0" mask-type="alpha" maskUnits="userSpaceOnUse" x="0" y="0" width="360" height="247">
<path d="M0 0H360V72C360 168.65 281.65 247 185 247H175C78.3502 247 0 168.65 0 72V0Z" fill="#F9A825"/>
</mask>
<g mask="url(#mask0)">
<path opacity="0.14" d="M252.24 110.512L271.593 115.911L275.165 121.904L292.793 167.474L269.01 166.397V120.629L252.24 110.512Z" fill="#686868"/>
<path opacity="0.4" d="M273.716 102.738L282.201 98.2903L293.514 115.261L305.77 129.746L292.638 82.2072L248.398 72.0438L235.207 90.7656L241.214 94.9114H260.988L273.716 102.738Z" fill="white"/>
<path d="M305.682 131.13C305.302 131.13 304.93 130.968 304.676 130.668L292.45 116.197C292.42 116.161 292.39 116.122 292.364 116.081L281.732 100.11L274.325 103.999C273.911 104.216 273.409 104.199 273.012 103.955L260.635 96.3314H241.286C241.016 96.3314 240.753 96.2498 240.533 96.0975L234.541 91.9559C233.961 91.5549 233.818 90.7748 234.22 90.2033L247.378 71.5006C247.682 71.0687 248.228 70.8623 248.752 70.9828L292.882 81.1358C293.347 81.2432 293.716 81.591 293.84 82.0415L306.94 129.531C307.098 130.108 306.823 130.715 306.278 130.989C306.089 131.084 305.884 131.13 305.682 131.13ZM294.509 114.639L302.861 124.526L291.526 83.4321L249.022 73.6531L237.094 90.6081L241.701 93.7932H261.011C261.258 93.7932 261.499 93.8613 261.707 93.9895L273.76 101.412L281.553 97.3205C282.15 97.0062 282.895 97.1923 283.264 97.7473L294.509 114.639Z" fill="#EF9E24"/>
<path d="M246.636 174.231C243.094 170.229 242.168 165.174 243.997 160.504C244.946 158.08 245.466 155.445 245.466 152.691C245.466 140.719 235.643 131.015 223.525 131.015C211.407 131.015 201.584 140.72 201.584 152.691C201.584 155.445 202.104 158.08 203.053 160.504C204.882 165.174 203.956 170.229 200.414 174.231C196.111 179.095 193.524 185.338 193.524 192.148C193.524 207.667 206.956 220.248 223.525 220.248C240.095 220.248 253.527 207.667 253.527 192.148C253.527 185.338 250.939 179.095 246.636 174.231Z" fill="#EFC585"/>
<path d="M223.525 249.429C222.805 249.429 222.222 248.861 222.222 248.16V145.461C222.222 144.76 222.805 144.192 223.525 144.192C224.244 144.192 224.827 144.76 224.827 145.461V248.16C224.827 248.861 224.244 249.429 223.525 249.429Z" fill="#EF9E24"/>
<path d="M223.525 211.044C223.191 211.044 222.858 210.92 222.604 210.672L211.758 200.104C211.249 199.609 211.249 198.805 211.758 198.309C212.267 197.814 213.091 197.814 213.6 198.309L223.525 207.981L233.45 198.309C233.959 197.814 234.783 197.814 235.292 198.309C235.801 198.805 235.801 199.609 235.292 200.104L224.445 210.672C224.191 210.92 223.858 211.044 223.525 211.044Z" fill="#EF9E24"/>
<path d="M223.525 196.103C223.179 196.103 222.848 195.97 222.604 195.731L211.758 185.163C211.249 184.667 211.249 183.863 211.758 183.368C212.267 182.872 213.091 182.872 213.6 183.368L223.525 193.039L233.45 183.368C233.959 182.872 234.783 182.872 235.292 183.368C235.801 183.863 235.801 184.667 235.292 185.163L224.445 195.731C224.201 195.97 223.87 196.103 223.525 196.103Z" fill="#EF9E24"/>
<path d="M223.525 181.162C223.179 181.162 222.848 181.028 222.604 180.79L211.758 170.221C211.249 169.725 211.249 168.922 211.758 168.426C212.267 167.931 213.091 167.931 213.6 168.426L223.525 178.097L233.45 168.426C233.959 167.931 234.783 167.931 235.292 168.426C235.801 168.922 235.801 169.725 235.292 170.221L224.445 180.79C224.201 181.028 223.87 181.162 223.525 181.162Z" fill="#EF9E24"/>
<path d="M223.525 166.22C223.179 166.22 222.848 166.086 222.604 165.848L211.758 155.279C211.249 154.784 211.249 153.98 211.758 153.484C212.267 152.989 213.091 152.989 213.6 153.484L223.525 163.156L233.45 153.484C233.959 152.989 234.783 152.989 235.292 153.484C235.801 153.98 235.801 154.784 235.292 155.279L224.445 165.848C224.201 166.086 223.87 166.22 223.525 166.22Z" fill="#EF9E24"/>
<path d="M101.808 252.884C51.433 242.588 31.3817 236.12 18.627 217.506C6.48628 199.787 1.14429 171.339 13.5831 155.39C22.7124 143.684 33.9394 148.302 49.3005 135.26C52.5917 132.466 55.008 130.013 56.9891 126.982C72.1752 103.744 33.8646 71.425 44.6873 49.957C48.1222 43.1435 76.5826 38.5653 133.364 29.6874C145.744 27.7516 155.266 26.6166 167.396 29.4399C190.577 34.835 195.659 58.5003 207.058 56.545C217.552 54.7449 215.163 36.1345 229.79 26.334C249.315 13.2519 280.733 28.2127 282.958 29.3046C310.745 42.9455 320.686 70.8222 333.03 107.169C348.7 153.303 361.239 188.847 342.905 221.357C327.54 248.602 300.614 260.008 286.146 265.976C248.083 281.68 199.011 272.75 101.808 252.884Z" fill="#F3AB3E"/>
<path d="M289.287 80.7344L245.179 70.5643L226.333 97.4104L229.966 111.435L211.912 108.64L195.61 112.043L192.626 119.999C183.643 102.915 175.336 85.7017 168.449 70.5643C168.449 76.4969 142.606 90.0269 109.968 94.2945C98.5504 118.025 1.62204 250.328 1.62204 250.328L335.779 249.65L289.287 80.7344Z" fill="#FFBF61"/>
<path d="M1.30267 251.468C0.815129 251.468 0.368395 251.202 0.144811 250.78C-0.079207 250.357 -0.0410002 249.847 0.243364 249.46C1.21237 248.14 97.2806 117.204 108.524 93.8885C108.712 93.498 109.091 93.2277 109.53 93.1702C129.197 90.6044 143.744 85.1015 150.665 82.0501C162.583 76.7955 166.909 72.4061 166.909 70.738C166.909 70.1386 167.34 69.6208 167.941 69.4964C168.545 69.3712 169.153 69.6749 169.402 70.2223C177.15 87.2133 192.85 120.26 210.952 150.681C228.639 180.407 243.648 199.388 255.563 207.098C256.162 207.485 256.326 208.273 255.928 208.857C255.53 209.441 254.721 209.6 254.122 209.212C241.871 201.285 226.588 182.021 208.698 151.954C191.423 122.921 176.334 91.5203 168.216 73.8618C167.37 74.9566 166.112 76.1221 164.448 77.3502C161.348 79.6388 156.953 82.0632 151.74 84.362C144.77 87.435 130.217 92.9464 110.573 95.5929C98.6642 119.238 16.3979 231.785 3.83807 248.924L333.926 248.256L288.053 81.952L245.549 72.173L227.199 98.2564C226.791 98.8343 225.981 98.9819 225.388 98.5855C224.795 98.1891 224.643 97.3993 225.05 96.821L243.905 70.0201C244.209 69.5882 244.754 69.383 245.279 69.5023L289.408 79.6553C289.874 79.7628 290.243 80.1105 290.367 80.561L336.882 249.193C336.987 249.573 336.905 249.98 336.658 250.293C336.412 250.607 336.031 250.79 335.626 250.791L1.30528 251.468C1.30441 251.468 1.30354 251.468 1.30267 251.468Z" fill="#CBA356"/>
<path d="M256.774 154.442C256.054 154.442 255.471 153.874 255.471 153.173V102.338L209.862 77.6383L178.214 92.5801C177.568 92.8856 176.788 92.6229 176.474 91.9913C176.16 91.3605 176.431 90.6012 177.078 90.2957L209.334 75.0663C209.716 74.8856 210.164 74.8983 210.535 75.0993L257.406 100.482C257.82 100.705 258.076 101.13 258.076 101.591V153.172C258.076 153.874 257.493 154.442 256.774 154.442Z" fill="#EF9E24"/>
<path opacity="0.4" d="M189.788 110.184L200.872 131.133L207.408 134.712L218.648 133.402H234.154L248.469 148.24L257.93 146.226C257.93 146.226 264.349 145.845 269.272 145.24V120.322L222.189 94.9766L189.788 110.184Z" fill="white"/>
<path opacity="0.14" d="M189.788 110.231L198.781 106.073L223.853 168.953C223.853 168.953 193.575 122.034 189.788 110.231Z" fill="#686868"/>
<path d="M248.453 149.672C248.096 149.672 247.75 149.529 247.502 149.269L233.636 134.813H218.844L207.732 136.115C207.456 136.147 207.177 136.093 206.935 135.96L200.429 132.375C200.207 132.253 200.027 132.07 199.911 131.849L188.876 110.87C188.716 110.567 188.689 110.213 188.8 109.889C188.911 109.565 189.152 109.298 189.467 109.15L221.723 93.9201C222.105 93.7394 222.553 93.7521 222.924 93.9531L269.795 119.336C270.209 119.559 270.465 119.984 270.465 120.445V145.398C270.465 146.037 269.978 146.577 269.327 146.657C264.778 147.22 258.897 147.594 258.053 147.646L248.732 149.642C248.639 149.662 248.546 149.672 248.453 149.672ZM218.766 132.275H234.202C234.563 132.275 234.907 132.421 235.153 132.678L248.898 147.008L257.591 145.147C257.657 145.133 257.724 145.124 257.791 145.12C257.85 145.116 263.253 144.79 267.859 144.274V121.192L222.25 96.4922L191.801 110.868L202.05 130.354L207.844 133.546L218.609 132.284C218.662 132.278 218.713 132.275 218.766 132.275Z" fill="#EF9E24"/>
<path opacity="0.4" d="M100.571 115.947L107.334 125.717L145.573 118.056L165.282 133.444L182.349 128.781L198.709 127.076C188.559 108.184 179.144 88.8364 171.48 72.0438C171.48 77.9735 145.573 91.4971 112.853 95.7627C110.917 99.775 106.526 106.893 100.571 115.947Z" fill="white"/>
<path d="M164.021 133.689C163.728 133.689 163.44 133.593 163.206 133.41L144.014 118.413L106.452 125.945C105.934 126.048 105.404 125.838 105.109 125.411L98.3607 115.653C98.0707 115.233 98.0637 114.686 98.3438 114.26C104.632 104.69 108.728 97.9556 110.518 94.2447C110.706 93.8542 111.085 93.5839 111.524 93.5264C131.191 90.9606 145.739 85.4577 152.66 82.4063C164.578 77.1517 168.904 72.7622 168.904 71.0942C168.904 70.4947 169.334 69.9769 169.936 69.8526C170.539 69.7274 171.147 70.0311 171.396 70.5785C177.395 83.7334 186.972 103.936 198.534 125.471C198.734 125.844 198.732 126.288 198.528 126.658C198.325 127.028 197.947 127.277 197.519 127.321L181.299 129.013L164.372 133.642C164.257 133.674 164.139 133.689 164.021 133.689ZM144.352 115.781C144.645 115.781 144.933 115.878 145.167 116.06L164.314 131.022L180.701 126.541C180.771 126.522 180.842 126.508 180.914 126.501L195.342 124.996C184.878 105.395 176.099 87.0293 170.211 74.2184C169.364 75.3132 168.106 76.4787 166.443 77.7068C163.342 79.9954 158.948 82.4198 153.734 84.7186C146.765 87.7916 132.211 93.303 112.567 95.9495C110.647 99.7594 106.76 106.135 100.999 114.925L106.782 123.287L144.089 115.807C144.176 115.79 144.264 115.781 144.352 115.781Z" fill="#C3AA51"/>
<path d="M182.168 170.557C184.597 195.83 172.952 219.997 155.723 219.997C138.495 219.997 126.85 195.829 129.278 170.557C131.33 149.205 143.048 134.184 155.723 134.184C168.398 134.184 180.117 149.205 182.168 170.557Z" fill="#FFBF61"/>
<path d="M155.665 220.934C149.766 220.934 144.191 218.302 139.542 213.322C130.804 203.962 126.203 187.153 127.823 170.498C129.887 149.272 141.856 133.265 155.665 133.265C169.474 133.265 181.443 149.272 183.507 170.498C185.126 187.153 180.526 203.962 171.787 213.322C167.138 218.302 161.563 220.934 155.665 220.934ZM155.665 135.803C149.846 135.803 144.085 139.205 139.444 145.383C134.583 151.853 131.376 160.857 130.416 170.738C128.862 186.714 133.201 202.759 141.469 211.615C145.611 216.051 150.52 218.396 155.664 218.396C160.809 218.396 165.718 216.051 169.86 211.615C178.128 202.759 182.467 186.714 180.913 170.738C179.952 160.857 176.746 151.853 171.885 145.383C167.244 139.205 161.484 135.803 155.665 135.803Z" fill="#C1A04C"/>
<path d="M155.665 252.271C154.946 252.271 154.362 251.703 154.362 251.002V157.075C154.362 156.374 154.946 155.806 155.665 155.806C156.384 155.806 156.967 156.374 156.967 157.075V251.002C156.967 251.703 156.384 252.271 155.665 252.271Z" fill="#EF9E24"/>
<path d="M155.664 208.571C155.319 208.571 154.988 208.437 154.743 208.199L144.909 198.616C144.4 198.121 144.4 197.317 144.909 196.821C145.417 196.326 146.242 196.326 146.751 196.821L155.664 205.507L164.577 196.821C165.086 196.326 165.911 196.326 166.42 196.821C166.928 197.317 166.928 198.121 166.42 198.616L156.585 208.199C156.341 208.437 156.01 208.571 155.664 208.571Z" fill="#EF9E24"/>
<path d="M155.664 195.023C155.331 195.023 154.998 194.899 154.744 194.651L144.909 185.068C144.4 184.573 144.4 183.769 144.909 183.274C145.418 182.778 146.243 182.778 146.751 183.274L155.665 191.959L164.579 183.274C165.087 182.778 165.912 182.779 166.421 183.274C166.93 183.769 166.929 184.573 166.421 185.068L156.586 194.651C156.331 194.899 155.997 195.023 155.664 195.023Z" fill="#EF9E24"/>
<path d="M155.664 181.476C155.331 181.476 154.998 181.352 154.744 181.104L144.909 171.521C144.4 171.025 144.4 170.221 144.909 169.726C145.417 169.23 146.242 169.23 146.751 169.726L155.664 178.412L164.578 169.726C165.087 169.23 165.911 169.23 166.42 169.726C166.929 170.221 166.929 171.025 166.42 171.521L156.585 181.104C156.331 181.352 155.997 181.476 155.664 181.476Z" fill="#EF9E24"/>
<path d="M155.664 167.928C155.331 167.928 154.998 167.804 154.744 167.556L144.909 157.973C144.4 157.477 144.4 156.674 144.909 156.178C145.417 155.682 146.242 155.682 146.751 156.178L155.664 164.864L164.578 156.179C165.087 155.683 165.911 155.683 166.42 156.179C166.929 156.674 166.929 157.478 166.42 157.973L156.585 167.556C156.331 167.804 155.997 167.928 155.664 167.928Z" fill="#EF9E24"/>
<path d="M149.012 202.675C150.705 215.311 142.589 227.395 130.581 227.395C118.573 227.395 110.457 215.311 112.149 202.675C113.579 191.999 121.747 184.488 130.581 184.488C139.415 184.488 147.582 191.999 149.012 202.675Z" fill="#E2B46D"/>
<path d="M130.806 228.613C125.575 228.613 120.685 226.386 117.036 222.344C112.404 217.211 110.223 209.72 111.203 202.308C112.666 191.245 121.094 182.902 130.806 182.902C140.518 182.902 148.945 191.245 150.408 202.308C151.388 209.72 149.207 217.211 144.574 222.344C140.927 226.387 136.036 228.613 130.806 228.613ZM130.806 185.44C122.399 185.44 115.083 192.831 113.787 202.633C112.901 209.332 114.847 216.074 118.993 220.668C122.185 224.205 126.27 226.075 130.806 226.075C135.341 226.075 139.426 224.205 142.618 220.668C146.764 216.075 148.71 209.332 147.824 202.633C146.528 192.831 139.212 185.44 130.806 185.44Z" fill="#C1A04C"/>
<path d="M130.806 252.271C130.086 252.271 129.503 251.703 129.503 251.002V190.428C129.503 189.727 130.086 189.159 130.806 189.159C131.525 189.159 132.108 189.727 132.108 190.428V251.003C132.108 251.703 131.525 252.271 130.806 252.271Z" fill="#C6BD6E"/>
<path d="M130.806 222.128C130.472 222.128 130.139 222.004 129.885 221.756L123.101 215.146C122.593 214.65 122.593 213.847 123.101 213.351C123.61 212.855 124.435 212.855 124.943 213.351L130.806 219.064L136.669 213.351C137.177 212.855 138.002 212.855 138.51 213.351C139.019 213.847 139.019 214.65 138.51 215.146L131.727 221.756C131.473 222.004 131.139 222.128 130.806 222.128Z" fill="#EF9E24"/>
<path d="M130.806 212.783C130.46 212.783 130.129 212.649 129.884 212.411L123.101 205.8C122.592 205.305 122.592 204.501 123.101 204.006C123.609 203.51 124.434 203.51 124.943 204.006L130.806 209.719L136.668 204.006C137.177 203.51 138.002 203.51 138.51 204.006C139.019 204.501 139.019 205.305 138.51 205.8L131.726 212.411C131.482 212.649 131.151 212.783 130.806 212.783Z" fill="#EF9E24"/>
<path d="M130.806 203.438C130.46 203.438 130.129 203.305 129.884 203.066L123.101 196.456C122.592 195.96 122.592 195.157 123.101 194.661C123.609 194.166 124.434 194.166 124.943 194.661L130.806 200.374L136.668 194.661C137.177 194.166 138.002 194.166 138.51 194.661C139.019 195.157 139.019 195.96 138.51 196.456L131.726 203.066C131.482 203.304 131.151 203.438 130.806 203.438Z" fill="#EF9E24"/>
<path d="M31.8609 74.3803C24.8607 72.9772 16.3849 84.4683 12.8551 93.285C6.66285 108.752 10.3537 129.324 18.0385 131.095C26.2152 132.978 41.4314 114.157 41.3639 95.7509C41.3344 87.722 38.3813 75.6868 31.8609 74.3803Z" fill="#EF9E24"/>
<path d="M230.831 183.969C227.653 180.283 226.822 175.628 228.463 171.327C229.315 169.095 229.782 166.668 229.782 164.131C229.782 153.106 220.966 144.169 210.092 144.169C199.217 144.169 190.402 153.107 190.402 164.131C190.402 166.668 190.869 169.095 191.721 171.327C193.362 175.628 192.531 180.283 189.352 183.969C185.491 188.448 183.169 194.198 183.169 200.469C183.169 214.762 195.223 226.348 210.092 226.348C224.962 226.348 237.015 214.762 237.015 200.469C237.015 194.198 234.693 188.448 230.831 183.969Z" fill="#FFBF61"/>
<path d="M210.092 227.517C194.602 227.517 182 215.383 182 200.469C182 194.173 184.297 188.043 188.467 183.205C191.346 179.867 192.134 175.689 190.629 171.743C189.703 169.316 189.233 166.754 189.233 164.131C189.233 152.479 198.591 143 210.092 143C221.594 143 230.951 152.479 230.951 164.131C230.951 166.755 230.482 169.316 229.555 171.743C228.05 175.689 228.838 179.867 231.717 183.205C235.887 188.042 238.184 194.173 238.184 200.469C238.184 215.384 225.581 227.517 210.092 227.517ZM210.092 145.338C199.879 145.338 191.57 153.769 191.57 164.131C191.57 166.469 191.988 168.75 192.813 170.91C194.634 175.684 193.696 180.722 190.237 184.732C186.433 189.145 184.338 194.734 184.338 200.47C184.338 214.095 195.891 225.18 210.092 225.18C224.292 225.18 235.846 214.095 235.846 200.47C235.846 194.734 233.751 189.145 229.946 184.732C229.946 184.732 229.946 184.732 229.946 184.732C226.488 180.722 225.549 175.685 227.371 170.91C228.195 168.75 228.613 166.469 228.613 164.131C228.613 153.769 220.304 145.338 210.092 145.338Z" fill="#C1A04C"/>
<path d="M210.092 253.222C209.446 253.222 208.923 252.699 208.923 252.053V157.473C208.923 156.828 209.446 156.304 210.092 156.304C210.737 156.304 211.26 156.828 211.26 157.473V252.053C211.26 252.699 210.737 253.222 210.092 253.222Z" fill="#C1A04C"/>
<path d="M210.092 217.872C209.792 217.872 209.494 217.758 209.265 217.529L199.532 207.796C199.076 207.34 199.076 206.6 199.532 206.144C199.989 205.687 200.728 205.687 201.185 206.144L210.092 215.05L218.999 206.144C219.455 205.687 220.195 205.687 220.651 206.144C221.108 206.6 221.108 207.34 220.651 207.796L210.918 217.529C210.69 217.758 210.39 217.872 210.092 217.872Z" fill="#C1A04C"/>
<path d="M210.092 204.112C209.781 204.112 209.484 203.989 209.265 203.77L199.532 194.036C199.076 193.58 199.076 192.84 199.532 192.384C199.989 191.927 200.728 191.927 201.185 192.384L210.092 201.29L218.999 192.384C219.455 191.927 220.195 191.927 220.651 192.384C221.108 192.84 221.108 193.58 220.651 194.036L210.918 203.77C210.699 203.989 210.401 204.112 210.092 204.112Z" fill="#C1A04C"/>
<path d="M210.092 190.352C209.781 190.352 209.484 190.229 209.265 190.009L199.532 180.276C199.076 179.819 199.076 179.08 199.532 178.623C199.989 178.167 200.728 178.167 201.185 178.623L210.092 187.53L218.999 178.623C219.455 178.166 220.195 178.166 220.651 178.623C221.108 179.079 221.108 179.819 220.651 180.276L210.918 190.009C210.699 190.228 210.401 190.352 210.092 190.352Z" fill="#C1A04C"/>
<path d="M210.092 176.591C209.781 176.591 209.484 176.468 209.265 176.249L199.532 166.515C199.076 166.059 199.076 165.319 199.532 164.862C199.989 164.406 200.728 164.406 201.185 164.862L210.092 173.769L218.999 164.862C219.455 164.406 220.195 164.406 220.651 164.862C221.108 165.319 221.108 166.059 220.651 166.515L210.918 176.248C210.699 176.468 210.401 176.591 210.092 176.591Z" fill="#C1A04C"/>
</g>
</svg>
